<?xml version="1.0" encoding="utf-8"?>
<!-- Generator: Adobe Illustrator 26.2.1, SVG Export Plug-In . SVG Version: 6.00 Build 0)  -->
<svg version="1.1" xmlns="http://www.w3.org/2000/svg" x="0px" y="0px"
     viewBox="0 0 35 30" style="enable-background:new 0 0 35 30;" xml:space="preserve">
<style type="text/css">
	.st0{fill:#DC3E22;}
</style>
    <path class="st0" d="M18.1,3.1c-0.2-0.1-0.4-0.2-0.6-0.2c-0.2,0-0.4,0.1-0.6,0.2L3.1,13.5L4.3,15L6,13.7v11.6c0,0.5,0.2,1,0.6,1.3
	c0.4,0.3,0.8,0.5,1.4,0.5h19.2c0.5,0,1-0.2,1.4-0.5s0.6-0.8,0.6-1.3V13.7l1.7,1.3l1.2-1.5L18.1,3.1z M19.4,25.3h-3.8v-7.5h3.8V25.3z
	 M21.3,25.3v-7.5c0-0.5-0.2-1-0.6-1.3c-0.4-0.3-0.8-0.5-1.4-0.5h-3.8c-0.5,0-1,0.2-1.4,0.5c-0.4,0.3-0.6,0.8-0.6,1.3v7.5H7.9v-13
	L17.5,5l9.6,7.3v13H21.3z"/>
</svg>