<svg xmlns="http://www.w3.org/2000/svg" width="1em" height="1em" preserveAspectRatio="xMidYMid meet"
     viewBox="0 0 24 24">
    <path
            d="M5 21q-.825 0-1.413-.587Q3 19.825 3 19V5q0-.825.587-1.413Q4.175 3 5 3h12l4 4v5.4L12.4 21Zm1-11h9V6H6Zm6 8q1.25 0 2.125-.875T15 15q0-1.25-.875-2.125T12 12q-1.25 0-2.125.875T9 15q0 1.25.875 2.125T12 18Zm3 5v-1.775l5-4.975l1.75 1.775L16.775 23Zm7.4-5.65l-1.775-1.75l.85-.85q.15-.15.362-.15q.213 0 .363.15l1.05 1.05q.15.15.15.35q0 .2-.15.35Z"
            fill="#A8B64F"/>
</svg>